<?xml version="1.0" encoding="utf-8"?>
<svg version="1.1" xmlns:xlink="http://www.w3.org/1999/xlink" width="41px" height="41px" xmlns="http://www.w3.org/2000/svg">
  <g transform="matrix(1 0 0 1 -50 -375 )">
    <path d="M 70.5 375  C 81.98 375  91 384.02  91 395.5  C 91 406.98  81.98 416  70.5 416  C 59.02 416  50 406.98  50 395.5  C 50 384.02  59.02 375  70.5 375  Z " fill-rule="nonzero" fill="#ffffff" stroke="none" />
    <path d="M 70.5 375.5  C 81.7 375.5  90.5 384.3  90.5 395.5  C 90.5 406.7  81.7 415.5  70.5 415.5  C 59.3 415.5  50.5 406.7  50.5 395.5  C 50.5 384.3  59.3 375.5  70.5 375.5  Z " stroke-width="1" stroke="#797979" fill="none" />
  </g>
</svg>